<svg xmlns="http://www.w3.org/2000/svg" xmlns:xlink="http://www.w3.org/1999/xlink" width="710" height="213.753" viewBox="0 0 710 213.753">
  <defs>
    <filter id="MAČKATOR" x="0" y="5.753" width="710" height="208" filterUnits="userSpaceOnUse">
      <feOffset dy="3" input="SourceAlpha"/>
      <feGaussianBlur stdDeviation="3" result="blur"/>
      <feFlood flood-opacity="0.161"/>
      <feComposite operator="in" in2="blur"/>
      <feComposite in="SourceGraphic"/>
    </filter>
  </defs>
  <g id="Group_1" data-name="Group 1" transform="translate(-294.743 -203.247)">
    <g transform="matrix(1, 0, 0, 1, 294.74, 203.25)" filter="url(#MAČKATOR)">
      <text id="MAČKATOR-2" data-name="MAČKATOR" transform="translate(9 158.75)" fill="#997b66" font-size="144" font-family="JetBrainsMonoRoman-Bold, JetBrains Mono" font-weight="700"><tspan x="0" y="0">M</tspan><tspan y="0" fill="rgba(153,123,102,0)">A</tspan><tspan y="0">ČKATOR</tspan></text>
    </g>
    <g id="cat-svg-file-free-cats-silhouette-mammal-animal-dog-transparent-png-582598" transform="translate(544.457 889.615) rotate(2)">
      <path id="Path_1" data-name="Path 1" d="M5.7-682.648c-1.767.6-3.535,2.8-4.43,5.511A11.615,11.615,0,0,0,.6-673.274a4.9,4.9,0,0,0,.2,1.827c.828,2.752,3.035,5.153,6.518,7.07a39.128,39.128,0,0,0,10.873,3.669c1.186.239,1.268.268,1.454.574.209.343.186.783-.075,1.6a28.182,28.182,0,0,0-.671,8.389l.075,1.663-.179.149c-.089.082-.552.47-1.014.858a18.572,18.572,0,0,0-4.877,6.093,6.972,6.972,0,0,0-.619,3.117,15.073,15.073,0,0,0,.239,3.58,3.525,3.525,0,0,0,1.924,2.424,1.872,1.872,0,0,0,1.089.3,2.122,2.122,0,0,0,1.917-.835,1.354,1.354,0,0,0,.089-.738,1.681,1.681,0,0,0-1.477-1.663c-.6-.119-.626-.179-.619-1.35A4.1,4.1,0,0,1,15.6-637.9a3.125,3.125,0,0,1,.865-1.387c.492-.365,5.7-3.184,5.906-3.184.321,0,.462.119.865.731a18.889,18.889,0,0,0,3.535,3.915c1.424,1.074,2.468,1.26,3.773.679,1.469-.656,1.044-1.685-.94-2.3a5.483,5.483,0,0,1-2.491-1.782,1.362,1.362,0,0,1-.261-1.29c.194-.738.753-1.573,2.3-3.453a29.17,29.17,0,0,0,2.446-3.356,7.112,7.112,0,0,1,.85-1.163c1.141-.843,2.864-1.074,6.488-.887,3.393.179,4.467.358,5.645.947a3.875,3.875,0,0,1,1.641,1.723,27.1,27.1,0,0,0,2.006,2.864c.529.686.7,1.074.619,1.387a3.155,3.155,0,0,1-.82.828,6.764,6.764,0,0,0-1.872,2.088,1.321,1.321,0,0,0,.261,1.857,1.866,1.866,0,0,0,2.133.1,6.075,6.075,0,0,0,1.775-1.312,6.475,6.475,0,0,0,1.566-2.1,4.586,4.586,0,0,0,.2-3.475c-.268-1.141-.3-1.656-.1-1.656s.574.448,1.67,1.917a12.244,12.244,0,0,0,4.579,4.094c.82.433,6.175,3.96,8.054,5.3.574.41,1.312.992,1.641,1.283,1.4,1.26,2.565,1.79,3.751,1.7a2.5,2.5,0,0,0,.88-.209,1.449,1.449,0,0,0,.477-2.26,5.881,5.881,0,0,0-1.059-.716,42.61,42.61,0,0,1-9.307-6.682c-1.432-1.491-1.812-2.26-1.82-3.647a2.424,2.424,0,0,1,.358-1.529,25.538,25.538,0,0,0,1.849-4.661c.089-.432.142-.537.3-.619.254-.119.5-.03.917.343a4.961,4.961,0,0,0,2.8,1.111,1.766,1.766,0,0,0,1.417-.328c.313-.261.433-.537.559-1.238a6.51,6.51,0,0,1,.7-1.842,11.068,11.068,0,0,0,.671-1.641,10.483,10.483,0,0,0,.06-1.566l-.022-1.156.477-.127a4.018,4.018,0,0,0,1.745-.94c.261-.231.537-.462.612-.507.268-.157-1.708-.776-2.476-.776-.35,0-.4-.015-.4-.149a1.245,1.245,0,0,1,.485-.813l.268-.231L71-664.094a3.688,3.688,0,0,0-2.468-.1c-.365.164-.373.164-.522.022-.611-.552-2.23-.917-4.146-.925-2.073-.015-3.468.418-6.786,2.1l-2.274,1.148-.522-.03c-1.372-.089-5.041-1.678-7.383-3.192a15.258,15.258,0,0,0-6.823-2.543,31.907,31.907,0,0,0-5.034.112,39.926,39.926,0,0,0-8.4,2.215,7.268,7.268,0,0,1-2.647.671,29.979,29.979,0,0,1-4.877-.112,25.235,25.235,0,0,1-10.448-3.453,10.106,10.106,0,0,1-4.064-4.385,3.657,3.657,0,0,1-.239-1.4,6.349,6.349,0,0,1,.06-1.342,14.4,14.4,0,0,1,2.431-5.168c.694-.962.984-1.715.79-2.021C7.438-682.834,6.461-682.909,5.7-682.648Z" transform="translate(0 0)" fill="#997b66"/>
    </g>
    <g id="kindpng_3245251" transform="translate(395.568 1221.758)">
      <path id="Path_2" data-name="Path 2" d="M59.895-979.412c-1.511.777-3.212,2.889-4.737,5.852a47.177,47.177,0,0,0-2.273,5.471,2.583,2.583,0,0,1-1.056.469A15.368,15.368,0,0,0,40.99-956.049a30.407,30.407,0,0,0-.293,7.6,4.024,4.024,0,0,1-.22,2.684,16.431,16.431,0,0,1-5.808,7.817,52.473,52.473,0,0,1-7.92,4.444c-2.332,1.159-4.913,2.537-5.749,3.051-6.087,3.725-10.017,8.433-13.112,15.708A58.644,58.644,0,0,0,4.06-879.842a50.589,50.589,0,0,0,2.493,8.668c.6,1.54.5,1.833-1.687,5.1A18.2,18.2,0,0,0,1.816-860a20.56,20.56,0,0,0,0,7.465,25.644,25.644,0,0,0,2.332,6.395,19.361,19.361,0,0,0,4.972,5.06c6.541,4.253,16.925,5.954,27.558,4.488,4.649-.645,9.269-2.141,11.748-3.828,1.525-1.041,2.831-2.7,2.845-3.622,0-.22-.073-.249-.381-.176-.7.176-4.928.807-6.952,1.027a78.975,78.975,0,0,1-17.746.073c-6.263-.851-11.616-2.933-14.241-5.544a9.849,9.849,0,0,1-2.552-8.7c.323-1.584.7-2.288,1.349-2.567.807-.337,5.632-.176,12.217.381a132.191,132.191,0,0,0,15.546.7,37.61,37.61,0,0,0,9.313-.983c2.567-.66,3.256-.953,3.432-1.511a3.407,3.407,0,0,0-2.039-4.561,13.283,13.283,0,0,0-3.828-.763l-.836-.073.6-1.349c.323-.733.939-2.259,1.364-3.4a6.51,6.51,0,0,1,.968-2.053,8.387,8.387,0,0,1,1.012,2.347c1.6,4.605,2.479,6.219,4.459,8.228a7.828,7.828,0,0,0,2.567,1.951,12,12,0,0,0,2.273.821,14.363,14.363,0,0,0,4.473.059,4,4,0,0,0,2.493-1.745,3.311,3.311,0,0,0,.367-1.98,3.066,3.066,0,0,1,.381-1.98c.792-1.335.909-2.435.352-3.285-.513-.792-2.347-1.408-4.121-1.408-.777,0-.777,0-.939-.557-.279-1-.865-4.473-1.1-6.482-.821-7.451-.6-15.209.748-25.211a12.041,12.041,0,0,1,1.672-4.136,28.512,28.512,0,0,1,2.156-2.713,32.277,32.277,0,0,0,3.388-4.195c2.068-3.183,2.8-6.761,2.611-12.73-.205-6.7-1.1-12.408-2.42-15.546l-.411-.983.924-.4a21.39,21.39,0,0,0,4.3-2.816c2.405-2.141,4.415-6,4.415-8.506,0-1.643-.733-3.007-1.76-3.285-.455-.117-.645-.293-.953-.851a20.344,20.344,0,0,0-1.173-1.716c-2.655-3.564-5.6-5.485-9.152-5.969l-1.261-.161.1-1.041c.059-.572.1-2.259.1-3.755.015-4.121-.425-6.409-1.467-7.671C60.995-979.882,60.819-979.911,59.895-979.412Z" transform="translate(0 0)" fill="#997b66"/>
    </g>
    <g id="kindpng_3227290" transform="translate(745.046 203.247)">
      <path id="Path_3" data-name="Path 3" d="M56.323-843.736a4.5,4.5,0,0,1,2.656,1.066,10.633,10.633,0,0,1,1.581,1.718c.2.38.6,1.616,2.122,6.707,2.256,7.509,2.593,8.676,3.3,11.372a47.421,47.421,0,0,0,1.469,4.773,21.1,21.1,0,0,1,1.356,5.058l.155.971-.232,1.256c-.126.692-.274,1.385-.33,1.541a5.324,5.324,0,0,1-.625.951,6.167,6.167,0,0,0-.738,1.188,19.841,19.841,0,0,1-1.9,3.544l-.59.917-.049,1.663a16.8,16.8,0,0,1-.478,3.917,5.073,5.073,0,0,1-.281.964c-.239.448-3.668,5.56-4.026,6a3.727,3.727,0,0,1-.717.577c-.274.183-.766.5-1.1.72a5.915,5.915,0,0,1-3.127,1.168,2.621,2.621,0,0,1-1.384-.665,1.952,1.952,0,0,1-.134-1.378,1.006,1.006,0,0,1,.829-.883,1.207,1.207,0,0,0,.773-.346c.021-.054.815-.794,1.771-1.636a24.646,24.646,0,0,0,1.848-1.738,1.117,1.117,0,0,0,.056-.889c-.119-.306-.386-.231-1.953.55-.8.394-1.553.794-1.679.883a16.818,16.818,0,0,1-1.553.7c-1.265.516-1.363.543-1.855.543a12.577,12.577,0,0,1-2.438-.333,1.509,1.509,0,0,1-.316-.292l-.176-.224-1.18.285c-.653.163-1.89.475-2.761.7s-2.045.489-2.607.577-1.736.326-2.6.516l-1.574.346-1.757.048a38.887,38.887,0,0,1-3.97-.02c-1.145-.061-1.089-.068-5.867.435-1.82.19-3.668.373-4.111.407a55.548,55.548,0,0,0-6.317,1.12c-1.967.387-3.822.74-4.132.774a5.561,5.561,0,0,0-.752.136,1.3,1.3,0,0,1-.386.075,1.124,1.124,0,0,0-.4.1,5.8,5.8,0,0,1-1.082.2,5.715,5.715,0,0,0-1.989.543,1.432,1.432,0,0,1-.4.143.968.968,0,0,0-.358.143,2.08,2.08,0,0,1-.541.231,1.761,1.761,0,0,1-1.152.027,5.967,5.967,0,0,0-1.37-.068c-.759.054-1.033-.027-1.251-.38a3.19,3.19,0,0,1-.33-1.127l-.077-.36.365-.339c.386-.353.6-.468.885-.468a.813.813,0,0,0,.45-.292c.372-.373.386-.611.035-.937a3.362,3.362,0,0,1-.457-.55.793.793,0,0,1,.183-1.181,3,3,0,0,1,2.178-.747c.576-.047,1.293-.088,1.581-.088,1.195-.007,1.918-.177,4.532-1.066,2.2-.747,6.991-2.4,7.5-2.6.112-.041.19-.115.169-.163s-.2-.075-.668-.061c-.6.02-.653.014-.8-.142a.966.966,0,0,0-.429-.21c-.6-.109-.815-.333-.956-.978a3.666,3.666,0,0,0-.253-.72,1.709,1.709,0,0,1-.176-.5,3.146,3.146,0,0,1,.3-.7,2.189,2.189,0,0,0,.267-1.677c-.077-.346-.07-.38.063-.523a.584.584,0,0,0,.148-.421c0-.292.119-.516.66-1.2a4.437,4.437,0,0,1,1.651-1.29,1.477,1.477,0,0,0,.668-.509,1.577,1.577,0,0,1,.569-.468c.7-.339,1-.767,1.609-2.261a10.278,10.278,0,0,1,.52-1.161,2.356,2.356,0,0,1,.9-.672,9.031,9.031,0,0,1,1.616,1.093.933.933,0,0,1,.2.353,4.371,4.371,0,0,0,1.159,1.229,3.549,3.549,0,0,0,.78.176,4.39,4.39,0,0,1,.808.163,4.714,4.714,0,0,1,.794.618l.576.53.618.054a8.87,8.87,0,0,1,1.989.394,2.132,2.132,0,0,0,.548.143c.141,0,3.155-1,4.764-1.575a5.264,5.264,0,0,0,.913-.489,4.718,4.718,0,0,1,.829-.448c.555-.17,1.328-.8,7.237-5.934,1.159-1.011,2.466-2.152,2.9-2.539a6.856,6.856,0,0,1,1.033-.8,15.177,15.177,0,0,0,1.4-.91c.639-.448,1.377-.95,1.637-1.113s1.862-.889,3.555-1.623,3.148-1.371,3.232-1.426a9.786,9.786,0,0,0,1.18-2.756,4.264,4.264,0,0,0,0-1.317c-.119-1.188-.977-7.264-1.1-7.767-.056-.231-.358-1.27-.668-2.308-1.012-3.354-.85-2.96-1.426-3.5a2.258,2.258,0,0,0-2.052-.835,15.18,15.18,0,0,0-3.478.3c-4.16.57-3.956.557-4.356.238a.865.865,0,0,1-.014-1.337,13.457,13.457,0,0,1,3.028-1.107,8.9,8.9,0,0,1,2.284-.475c.583-.054,1.44-.163,1.9-.231A3.509,3.509,0,0,1,56.323-843.736Z" transform="translate(-1.6 843.768)" fill="#997b66"/>
    </g>
  </g>
</svg>
